HIERARCHY
ROOT Hips
{
	OFFSET -0.001795 -0.223333 0.028219
	CHANNELS 6 Xposition Yposition Zposition Zrotation Yrotation Xrotation 
	JOINT LeftUpLeg
	{
		OFFSET 0.069520 -0.091406 -0.006815
		CHANNELS 3 Zrotation Yrotation Xrotation
		JOINT LeftLeg
		{
			OFFSET 0.034277 -0.375199 -0.004496
			CHANNELS 3 Zrotation Yrotation Xrotation
			JOINT LeftFoot
			{
				OFFSET -0.013596 -0.397961 -0.043693
				CHANNELS 3 Zrotation Yrotation Xrotation
				JOINT LeftToe
				{
					OFFSET 0.026358 -0.055791 0.119288
					CHANNELS 3 Zrotation Yrotation Xrotation
					End Site
					{
						OFFSET 0.000000 0.000000 0.000000
					}
				}
			}
		}
	}
	JOINT RightUpLeg
	{
		OFFSET -0.067670 -0.090522 -0.004320
		CHANNELS 3 Zrotation Yrotation Xrotation
		JOINT RightLeg
		{
			OFFSET -0.038290 -0.382569 -0.008850
			CHANNELS 3 Zrotation Yrotation Xrotation
			JOINT RightFoot
			{
				OFFSET 0.015774 -0.398415 -0.042312
				CHANNELS 3 Zrotation Yrotation Xrotation
				JOINT RightToe
				{
					OFFSET -0.025372 -0.048144 0.123348
					CHANNELS 3 Zrotation Yrotation Xrotation
					End Site
					{
						OFFSET 0.000000 0.000000 0.000000
					}
				}
			}
		}
	}
	JOINT Spine
	{
		OFFSET -0.002533 0.108963 -0.026696
		CHANNELS 3 Zrotation Yrotation Xrotation
		JOINT Spine1
		{
			OFFSET 0.005487 0.135180 0.001092
			CHANNELS 3 Zrotation Yrotation Xrotation
			JOINT Spine2
			{
				OFFSET 0.001457 0.052922 0.025425
				CHANNELS 3 Zrotation Yrotation Xrotation
				JOINT Neck
				{
					OFFSET -0.002778 0.213870 -0.042857
					CHANNELS 3 Zrotation Yrotation Xrotation
					JOINT Head
					{
						OFFSET 0.005152 0.064970 0.051349
						CHANNELS 3 Zrotation Yrotation Xrotation
						End Site
						{
							OFFSET 0.000000 0.000000 0.000000
						}
					}
				}
				JOINT LeftShoulder
				{
					OFFSET 0.078845 0.121749 -0.034090
					CHANNELS 3 Zrotation Yrotation Xrotation
					JOINT LeftArm
					{
						OFFSET 0.090977 0.030469 -0.008868
						CHANNELS 3 Zrotation Yrotation Xrotation
						JOINT LeftForeArm
						{
							OFFSET 0.259612 -0.012772 -0.027456
							CHANNELS 3 Zrotation Yrotation Xrotation
							JOINT LeftHand
							{
								OFFSET 0.249234 0.008986 -0.001171
								CHANNELS 3 Zrotation Yrotation Xrotation
								End Site
								{
									OFFSET 0.000000 0.000000 0.000000
								}
							}
						}
					}
				}
				JOINT RightShoulder
				{
					OFFSET -0.081759 0.118833 -0.038615
					CHANNELS 3 Zrotation Yrotation Xrotation
					JOINT RightArm
					{
						OFFSET -0.096012 0.032551 -0.009143
						CHANNELS 3 Zrotation Yrotation Xrotation
						JOINT RightForeArm
						{
							OFFSET -0.253742 -0.013329 -0.021401
							CHANNELS 3 Zrotation Yrotation Xrotation
							JOINT RightHand
							{
								OFFSET -0.255298 0.007772 -0.005559
								CHANNELS 3 Zrotation Yrotation Xrotation
								End Site
								{
									OFFSET 0.000000 0.000000 0.000000
								}
							}
						}
					}
				}
			}
		}
	}
}
MOTION
Frames: 7
Frame Time: 0.050000
0.000000 0.964773 0.000000 -3.477146 -7.550849 -1.114921 3.298746 -0.402244 -7.067221 -5.166266 3.213708 47.709320 3.581854 10.167540 13.258722 0.000000 0.000000 0.000000 5.681869 1.457898 -10.513754 2.345779 0.427092 17.892598 -2.569004 -8.293893 4.471337 0.000000 0.000000 0.000000 5.484884 -0.784418 9.119287 -3.039493 1.264039 -28.161267 -0.486142 5.247166 30.784659 10.294434 -3.597456 -30.981028 0.000000 0.000000 0.000000 -20.122872 -3.287374 0.838255 -52.561486 -9.963138 -4.785135 -10.264864 -26.954216 3.952488 0.000000 0.000000 0.000000 21.043109 -8.702163 -6.040429 61.241556 -3.566974 -10.675438 9.635703 20.522934 2.632659 0.000000 0.000000 0.000000 
-0.004947 0.973752 -0.017119 -3.521453 -8.966134 -0.751218 5.974447 -0.386593 -16.456351 -5.931040 4.544285 52.404261 4.296847 11.343574 14.266152 0.000000 0.000000 0.000000 6.044322 0.730804 -5.996685 1.175854 0.623604 15.515555 -2.297586 -7.902515 4.880165 0.000000 0.000000 0.000000 4.587200 -0.629517 7.991062 -2.645976 1.133150 -26.092768 0.876340 8.376169 30.484149 9.129655 -2.423454 -31.659543 0.000000 0.000000 0.000000 -18.982044 -1.451740 -0.767130 -53.189532 -7.942478 -5.485909 -12.510001 -25.303266 4.073420 0.000000 0.000000 0.000000 19.300148 -6.716602 -4.105076 62.352524 3.218365 -7.225811 11.823134 22.490434 3.437332 0.000000 0.000000 0.000000 
-0.008289 0.978319 -0.033778 -1.408209 -10.507518 -2.829910 6.349262 -0.247982 -20.993085 -7.990313 5.680137 47.924297 6.151920 13.756187 12.059564 0.000000 0.000000 0.000000 4.678099 -0.325027 1.457161 -0.660130 0.662866 10.185136 -1.555896 -5.995418 4.148074 0.000000 0.000000 0.000000 3.378178 -0.606149 9.789169 -3.686702 1.363642 -26.498391 1.753852 11.990858 31.121732 9.878202 -2.365608 -32.072006 0.000000 0.000000 0.000000 -20.924328 -2.992737 -0.823289 -51.320828 -4.808638 -6.521380 -11.916281 -22.597608 3.330880 0.000000 0.000000 0.000000 19.121550 -5.072421 -2.490195 62.998274 9.489190 -4.017265 11.013631 24.098072 3.700505 0.000000 0.000000 0.000000 
-0.010580 0.976549 -0.047527 -0.805444 -12.309846 -3.063704 6.172146 -0.149280 -23.533758 -7.705790 4.473413 37.738881 8.173506 16.600078 12.880258 0.000000 0.000000 0.000000 3.388046 -0.867935 6.938281 -0.047905 0.298364 5.895568 -1.261054 -4.869877 3.162402 0.000000 0.000000 0.000000 3.783992 -0.663941 10.629242 -5.529763 1.770529 -28.859149 3.289450 15.454574 33.739665 10.320997 -2.244279 -32.181420 0.000000 0.000000 0.000000 -19.005117 -2.321170 -1.540524 -51.873027 -3.251206 -7.392808 -14.297389 -19.834130 3.241203 0.000000 0.000000 0.000000 20.181391 -5.550703 -2.143144 62.428762 14.289569 -1.755064 10.226409 28.403557 4.586943 0.000000 0.000000 0.000000 
-0.011007 0.968009 -0.058895 -0.358869 -13.918094 -3.892826 6.277854 -0.006768 -23.434549 -5.432480 1.977364 22.397835 8.494122 16.643159 15.872224 0.000000 0.000000 0.000000 1.727818 -1.127865 12.941406 0.212099 0.075757 2.152728 -0.611694 -2.587338 1.729698 0.000000 0.000000 0.000000 3.326941 -0.617886 11.111146 -5.395415 1.740057 -28.434565 4.235495 18.876946 33.339703 10.113506 -1.659837 -32.346309 0.000000 0.000000 0.000000 -18.634642 -3.213518 -1.675072 -50.562193 1.138971 -8.757613 -15.712987 -18.492249 3.118181 0.000000 0.000000 0.000000 18.873053 -5.060040 -1.389047 62.094672 17.423788 0.250645 9.647815 33.153328 5.522775 0.000000 0.000000 0.000000 
-0.009884 0.953395 -0.067490 -0.382524 -14.157698 -4.925103 5.697096 -0.157300 -21.437519 -2.983451 0.494781 7.016011 9.382987 17.875141 14.477841 0.000000 0.000000 0.000000 1.703894 -1.307295 16.331011 -0.486257 0.212113 3.421865 -1.301466 -1.751070 -2.063251 0.000000 0.000000 0.000000 3.352629 -0.649478 12.212128 -7.201834 2.139029 -28.137552 5.613828 18.783569 33.180655 10.724764 -1.965764 -32.736478 0.000000 0.000000 0.000000 -20.914648 -2.403764 -2.500097 -49.465491 3.099263 -9.152447 -15.813925 -16.739454 2.829227 0.000000 0.000000 0.000000 19.000525 -5.494984 -1.667443 61.016382 20.208525 1.656719 8.870955 35.982361 5.906202 0.000000 0.000000 0.000000 
-0.007850 0.939804 -0.073386 -1.867198 -13.119713 -5.056639 5.838891 -0.186602 -20.789848 -0.615197 0.122534 -1.598654 7.360140 14.952218 13.208825 0.000000 0.000000 0.000000 2.744493 -1.745672 19.384799 -1.075045 0.313678 3.992327 -1.324625 -0.624332 -3.870645 0.000000 0.000000 0.000000 4.305894 -0.760582 12.328048 -6.200458 1.919490 -27.103603 4.627304 17.819487 31.357402 11.101871 -2.328678 -31.896583 0.000000 0.000000 0.000000 -20.499526 -0.837778 -3.259956 -48.794962 6.576365 -10.238322 -16.743737 -16.595017 2.921945 0.000000 0.000000 0.000000 19.655840 -4.380949 -1.140459 59.709813 21.591787 2.334907 8.907795 38.049486 6.229872 0.000000 0.000000 0.000000 
